<?xml version="1.0" standalone="no"?>
<!DOCTYPE svg PUBLIC "-//W3C//DTD SVG 20010904//EN"
 "http://www.w3.org/TR/2001/REC-SVG-20010904/DTD/svg10.dtd">
<svg version="1.0" xmlns="http://www.w3.org/2000/svg"
 width="16.000000pt" height="16.000000pt" viewBox="0 0 16.000000 16.000000"
 preserveAspectRatio="xMidYMid meet">
<metadata>
Created by potrace 1.11, written by Peter Selinger 2001-2013
</metadata>
<g transform="translate(0.000000,16.000000) scale(0.001584,-0.001584)"
fill="#000000" stroke="none">
<path d="M4975 10074 c-6 -2 -93 -5 -195 -7 -289 -8 -412 -21 -710 -78 -190
-36 -439 -99 -485 -123 -17 -9 -41 -16 -55 -16 -27 0 -81 -18 -117 -38 -12 -7
-29 -12 -37 -12 -8 0 -40 -11 -70 -25 -30 -14 -61 -25 -69 -25 -7 0 -36 -11
-63 -25 -27 -14 -55 -25 -63 -25 -7 0 -34 -11 -60 -24 -25 -13 -118 -58 -206
-101 -88 -43 -205 -103 -260 -134 -55 -31 -108 -59 -117 -63 -10 -4 -18 -12
-18 -18 0 -5 -8 -10 -18 -10 -10 0 -33 -13 -52 -30 -19 -16 -40 -29 -47 -30
-6 0 -18 -6 -25 -13 -7 -7 -54 -40 -103 -72 -111 -74 -261 -191 -460 -358
-128 -108 -417 -395 -456 -453 -8 -12 -42 -52 -76 -90 -83 -92 -113 -130 -113
-143 0 -6 -6 -11 -13 -11 -7 0 -21 -14 -31 -32 -11 -17 -25 -39 -32 -47 -50
-60 -74 -96 -74 -107 0 -8 -6 -14 -14 -14 -8 0 -18 -10 -22 -22 -6 -20 -31
-57 -89 -133 -8 -10 -15 -24 -15 -31 0 -6 -13 -28 -30 -49 -16 -21 -30 -44
-30 -51 0 -7 -6 -17 -13 -21 -7 -4 -21 -26 -31 -47 -10 -22 -23 -45 -27 -50
-13 -16 -83 -148 -135 -256 -25 -52 -56 -115 -69 -140 -12 -25 -25 -57 -29
-72 -3 -16 -11 -28 -16 -28 -6 0 -10 -9 -10 -19 0 -11 -4 -23 -10 -26 -5 -3
-10 -16 -10 -27 0 -12 -6 -29 -13 -37 -8 -9 -26 -56 -42 -104 -16 -49 -33 -90
-37 -93 -4 -3 -8 -14 -8 -25 0 -11 -7 -33 -15 -48 -8 -16 -24 -62 -35 -102
-12 -41 -26 -90 -31 -109 -6 -19 -14 -53 -18 -75 -4 -22 -12 -49 -18 -60 -6
-11 -16 -51 -23 -90 -7 -38 -18 -86 -25 -105 -7 -19 -18 -71 -25 -115 -6 -44
-15 -102 -21 -130 -26 -132 -39 -250 -41 -360 -1 -66 -3 -103 -5 -82 -3 29 -9
37 -24 37 -19 0 -19 -11 -19 -435 0 -424 0 -435 19 -435 16 0 21 8 24 47 2 27
4 -8 5 -77 1 -69 11 -179 22 -245 11 -66 27 -167 35 -225 9 -58 22 -121 29
-140 8 -19 19 -66 26 -105 7 -38 17 -79 23 -90 6 -11 14 -38 18 -60 4 -22 12
-56 18 -75 5 -19 19 -68 31 -109 11 -40 27 -86 35 -102 8 -15 15 -37 15 -48 0
-11 4 -22 8 -25 4 -3 21 -44 37 -93 16 -48 34 -95 42 -104 7 -8 13 -25 13 -37
0 -11 4 -24 10 -27 5 -3 10 -15 10 -26 0 -10 4 -19 10 -19 5 0 13 -12 16 -27
4 -16 17 -48 29 -73 13 -25 44 -88 69 -140 52 -108 122 -240 135 -256 4 -5 17
-28 27 -50 10 -21 24 -43 31 -47 7 -4 13 -14 13 -21 0 -7 14 -30 30 -51 17
-21 30 -43 30 -50 0 -6 8 -21 17 -33 10 -12 34 -44 53 -73 19 -28 43 -60 53
-70 9 -11 17 -23 17 -28 0 -7 30 -48 74 -102 7 -8 21 -30 32 -47 10 -18 24
-32 31 -32 7 0 13 -5 13 -11 0 -11 23 -43 78 -105 98 -114 124 -144 187 -212
69 -75 156 -163 265 -267 122 -116 442 -371 575 -460 49 -33 95 -63 100 -67
40 -32 117 -78 130 -78 8 0 15 -4 15 -10 0 -5 21 -19 48 -31 26 -12 49 -25 52
-29 6 -9 19 -16 266 -139 104 -51 210 -104 235 -117 26 -13 53 -24 60 -24 8 0
36 -11 63 -25 27 -14 56 -25 63 -25 8 0 39 -11 69 -25 30 -14 62 -25 70 -25 9
0 28 -7 42 -15 15 -8 59 -24 97 -34 356 -99 565 -151 608 -151 14 0 69 -9 123
-21 55 -11 169 -24 254 -28 85 -4 134 -9 108 -9 -41 -2 -48 -5 -48 -22 0 -20
7 -20 490 -20 483 0 490 0 490 20 0 17 -7 20 -47 22 -27 0 22 5 107 9 88 4
198 17 254 28 54 12 109 21 123 21 14 0 71 11 127 24 55 13 121 29 146 34 94
20 236 61 265 76 17 9 41 16 55 16 27 0 81 18 117 38 12 7 29 12 37 12 8 0 40
11 70 25 30 14 61 25 69 25 7 0 36 11 63 25 27 14 55 25 63 25 7 0 34 11 60
24 25 13 131 66 235 117 247 123 260 130 266 139 3 4 26 17 53 29 26 12 47 26
47 31 0 6 7 10 15 10 13 0 87 44 130 78 6 4 51 34 100 67 50 32 104 71 120 85
17 14 44 34 60 45 27 19 174 139 280 228 103 87 271 249 380 369 63 68 89 98
187 212 55 62 78 94 78 105 0 6 6 11 13 11 7 0 21 14 31 32 11 17 25 39 32 47
44 54 74 95 74 102 0 5 7 17 16 27 29 33 81 107 108 156 15 27 38 63 52 81 13
18 24 35 24 39 0 4 11 22 25 40 14 18 25 37 25 42 0 6 7 19 15 29 19 26 83
146 141 265 25 52 56 115 69 140 12 25 25 57 29 72 3 16 11 28 16 28 6 0 10 9
10 19 0 11 5 23 10 26 6 3 10 16 10 28 0 13 6 31 14 42 8 11 26 56 41 100 15
44 31 84 36 89 5 6 9 18 9 27 0 9 9 36 19 60 11 25 25 67 31 94 6 28 14 59 19
70 17 40 31 92 31 114 0 12 6 34 14 49 7 15 19 59 26 97 7 39 18 86 26 105 7
19 20 82 29 140 8 58 24 159 35 225 11 66 21 174 22 240 1 66 3 103 5 83 3
-30 9 -38 24 -38 18 0 19 11 19 430 0 419 -1 430 -19 430 -15 0 -21 -8 -24
-37 -2 -21 -4 16 -5 82 -1 66 -11 174 -22 240 -11 66 -27 167 -35 225 -9 58
-22 121 -29 140 -8 19 -19 67 -26 105 -7 39 -17 79 -23 90 -6 11 -14 38 -18
60 -4 22 -12 56 -18 75 -5 19 -19 68 -31 109 -11 40 -27 86 -35 102 -8 15 -15
37 -15 48 0 11 -4 22 -8 25 -4 3 -21 44 -37 93 -16 48 -34 95 -42 104 -7 8
-13 25 -13 37 0 11 -4 24 -10 27 -5 3 -10 15 -10 26 0 10 -4 19 -10 19 -5 0
-13 12 -16 28 -4 15 -17 47 -29 72 -13 25 -44 88 -69 140 -52 108 -122 240
-135 256 -4 5 -17 28 -27 50 -10 21 -24 43 -31 47 -7 4 -13 14 -13 21 0 7 -13
30 -30 51 -16 21 -30 43 -30 50 0 6 -8 21 -17 33 -10 12 -34 44 -53 73 -19 28
-43 60 -52 70 -10 11 -18 23 -18 28 0 7 -30 48 -74 102 -7 8 -21 30 -32 47
-10 18 -24 32 -31 32 -7 0 -13 5 -13 11 0 11 -23 43 -78 105 -15 18 -47 55
-72 84 -155 179 -353 377 -495 497 -106 89 -253 209 -280 228 -16 11 -43 31
-60 45 -16 14 -70 52 -120 85 -49 33 -96 65 -103 72 -7 7 -19 13 -25 13 -7 1
-28 14 -47 30 -19 17 -42 30 -52 30 -10 0 -18 7 -18 15 0 8 -6 15 -13 15 -16
0 -79 30 -87 41 -6 8 -21 16 -266 138 -104 51 -210 104 -235 117 -26 13 -53
24 -60 24 -8 0 -36 11 -63 25 -27 14 -56 25 -63 25 -8 0 -39 11 -69 25 -30 14
-62 25 -70 25 -8 0 -25 5 -37 12 -36 20 -90 38 -117 38 -14 0 -38 7 -55 16
-32 17 -212 66 -345 94 -47 10 -105 23 -130 29 -46 11 -194 36 -310 51 -36 5
-93 9 -128 10 -35 0 -72 4 -82 10 -15 8 -518 21 -545 14z m675 -78 c482 -71
853 -167 1245 -321 147 -58 557 -262 697 -346 361 -219 635 -429 917 -704 337
-329 582 -638 818 -1030 106 -176 265 -495 314 -630 10 -27 32 -84 49 -125 64
-152 178 -524 209 -680 6 -30 18 -84 26 -120 23 -102 54 -310 75 -495 26 -246
26 -765 0 -995 -27 -230 -47 -364 -70 -467 -11 -48 -25 -113 -31 -143 -41
-208 -196 -680 -294 -896 -229 -502 -472 -881 -827 -1289 -94 -109 -358 -374
-425 -427 -22 -18 -81 -67 -130 -109 -154 -134 -395 -305 -633 -449 -142 -86
-519 -275 -655 -328 -202 -79 -229 -89 -390 -140 -286 -90 -468 -133 -725
-172 -289 -44 -282 -44 -775 -44 -513 -1 -514 -1 -860 60 -214 37 -578 128
-720 180 -553 202 -1012 447 -1422 758 -206 157 -248 193 -476 416 -499 487
-876 1052 -1134 1700 -175 440 -275 847 -333 1350 -26 234 -26 754 0 995 31
286 64 471 131 740 51 204 152 507 210 631 10 22 19 45 19 51 0 41 219 474
337 665 239 391 462 669 794 993 348 340 720 608 1154 835 77 40 144 77 149
81 6 5 18 9 28 9 37 0 411 -246 479 -314 97 -98 213 -317 310 -586 26 -74 67
-184 89 -245 23 -60 45 -121 50 -135 20 -66 112 -284 148 -352 44 -85 129
-208 143 -208 5 0 26 -15 46 -33 178 -158 469 -253 886 -287 62 -6 142 -14
179 -19 101 -13 303 -6 303 11 0 10 -19 12 -85 10 -69 -3 -279 14 -410 32 -14
2 -65 9 -114 15 -152 20 -312 62 -436 113 -135 56 -282 169 -358 275 -97 133
-164 280 -243 529 -107 339 -162 499 -194 570 -39 85 -46 111 -13 49 11 -22
31 -50 44 -62 13 -12 24 -29 24 -38 0 -9 5 -26 11 -37 11 -21 12 -21 25 3 7
13 13 36 14 50 0 30 22 52 73 74 20 8 41 24 47 35 8 16 21 20 60 20 27 0 52 5
55 10 4 6 10 8 15 5 4 -3 6 4 3 15 -5 20 -23 29 -74 35 -17 3 -45 14 -63 25
l-31 21 35 -6 c55 -11 259 -76 417 -134 130 -48 322 -144 296 -149 -13 -2 -37
7 -56 22 -19 14 -43 26 -54 26 -11 0 -31 9 -45 19 -15 12 -43 21 -72 22 -33 2
-52 9 -60 21 -12 17 -106 43 -106 29 0 -3 -11 7 -25 22 -22 22 -34 27 -73 26
-84 -2 -122 -23 -49 -27 15 -1 37 -6 47 -12 10 -5 30 -10 44 -10 14 0 26 -4
26 -10 0 -5 12 -13 27 -16 14 -4 45 -17 67 -30 23 -13 51 -24 64 -24 12 0 45
-11 72 -25 27 -14 54 -25 61 -25 6 0 24 -9 40 -21 16 -11 45 -25 64 -30 19 -5
41 -16 48 -24 8 -7 32 -18 54 -24 24 -7 48 -21 57 -36 19 -29 59 -35 54 -8 -2
10 -13 23 -26 29 -12 6 -30 18 -40 27 -10 10 -23 17 -29 17 -5 0 -20 12 -34
27 l-24 26 51 -29 c77 -45 227 -154 247 -180 13 -18 15 -29 8 -42 -7 -13 -6
-23 1 -30 18 -18 28 -15 37 10 8 22 13 18 80 -52 40 -41 84 -93 98 -115 14
-22 40 -54 58 -71 32 -33 154 -211 218 -322 44 -76 125 -258 144 -327 51 -176
66 -248 83 -395 32 -269 23 -658 -25 -1016 -50 -374 -84 -606 -119 -810 -25
-142 -36 -191 -102 -464 -92 -383 -203 -698 -342 -977 -145 -288 -256 -455
-564 -851 -482 -618 -560 -730 -707 -1022 -85 -167 -134 -287 -205 -500 -75
-225 -151 -529 -171 -680 -4 -30 -16 -92 -26 -138 -26 -114 -26 -118 24 -149
71 -46 108 -84 95 -100 -18 -23 9 -39 92 -56 l75 -16 57 29 c83 43 171 109
203 153 59 82 220 162 432 215 174 44 212 51 385 66 86 8 162 17 167 20 6 4
95 15 198 26 209 22 336 42 403 63 50 16 117 34 170 46 19 4 45 13 57 19 12 7
33 12 47 12 15 0 43 9 63 20 21 11 51 20 67 20 16 0 43 9 60 20 18 10 57 26
87 34 80 22 137 44 183 71 23 12 57 26 76 30 19 4 46 14 60 21 28 16 187 71
240 83 19 4 67 28 105 53 39 25 90 56 115 68 64 32 121 78 236 194 156 156
252 246 263 246 6 0 29 26 52 58 23 31 65 82 93 114 62 68 118 143 141 189 10
19 33 52 51 74 18 22 65 106 104 185 39 80 78 156 86 170 29 50 72 149 79 182
4 18 14 46 22 62 32 61 58 167 99 389 24 136 26 163 21 315 -3 106 -11 187
-21 222 -9 30 -21 76 -27 102 -10 44 -29 75 -29 47 0 -7 -2 -10 -5 -7 -3 2 0
19 6 36 7 20 7 37 1 49 -5 10 -13 77 -16 148 -7 125 -20 263 -31 315 -5 24
-18 85 -30 145 -4 17 -13 64 -22 105 -8 41 -21 89 -28 105 -19 43 -75 198
-130 360 -105 309 -246 588 -412 812 -21 28 -64 88 -96 132 -67 93 -246 278
-362 373 -235 194 -450 358 -645 490 -101 69 -310 228 -329 252 -9 11 -10 16
-2 16 16 0 7 39 -20 85 -13 22 -29 62 -35 90 -17 75 -62 181 -114 270 -38 65
-50 93 -50 112 0 8 -9 17 -19 20 -11 3 -25 19 -32 36 -7 18 -21 38 -31 45 -10
7 -18 20 -18 29 0 8 -14 28 -31 44 -17 16 -28 33 -25 38 7 10 -38 105 -65 136
-9 11 -19 32 -23 47 -4 18 -22 38 -49 55 -23 16 -48 36 -55 45 -7 10 -19 18
-26 18 -8 0 -26 15 -42 33 -52 59 -178 164 -215 180 -19 8 -51 28 -70 44 -44
38 -164 123 -174 123 -4 0 -29 15 -54 34 -116 83 -548 245 -891 335 -41 11
-97 27 -125 35 -27 8 -111 31 -185 51 -208 55 -226 61 -370 108 -74 24 -160
50 -190 57 -53 12 -117 47 -106 58 3 3 27 13 53 22 27 10 93 37 148 60 151 63
469 166 665 217 232 59 384 87 630 117 74 10 140 19 145 21 6 2 219 2 475 0
353 -2 490 -7 570 -19z m-2046 -773 c-5 -5 -12 -12 -15 -16 -3 -5 -9 -2 -12 7
-5 12 0 16 15 16 12 0 17 -3 12 -7z m1809 -786 c9 -18 24 -43 34 -57 23 -34 4
-15 -40 41 -40 49 -45 61 -24 53 8 -3 21 -19 30 -37z m137 -198 c15 -28 5 -23
-15 7 -9 15 -12 23 -6 20 6 -4 16 -16 21 -27z m49 -83 c-3 -3 -11 5 -18 17
-13 21 -12 21 5 5 10 -10 16 -20 13 -22z m110 -185 c-2 -6 -12 4 -22 22 l-18
32 21 -21 c13 -12 21 -27 19 -33z m168 -503 c-3 -8 -6 -5 -6 6 -1 11 2 17 5
13 3 -3 4 -12 1 -19z m387 -293 c402 -304 484 -374 745 -635 407 -409 643
-851 810 -1522 60 -242 84 -392 108 -682 14 -180 15 -235 5 -371 -22 -294 -87
-551 -220 -870 -166 -396 -491 -793 -864 -1054 -311 -217 -560 -344 -933 -474
-325 -113 -552 -158 -1010 -202 -558 -53 -693 -77 -887 -155 -40 -16 -64 -23
-53 -15 45 32 45 33 39 108 -6 76 17 215 52 309 8 24 22 63 31 88 28 78 217
435 248 470 13 14 37 48 53 76 17 28 56 86 89 129 89 119 90 121 201 270 66
89 128 159 168 193 35 29 64 56 64 61 0 5 19 29 43 54 59 65 91 106 116 152
12 22 36 59 54 81 106 137 223 328 317 519 71 144 99 212 135 340 26 88 61
196 79 240 18 44 43 112 55 150 12 39 28 90 36 115 7 25 26 97 40 160 15 63
35 151 45 195 11 44 26 118 35 165 9 47 23 112 30 145 8 33 19 98 25 145 6 47
20 135 31 195 27 158 59 384 70 505 5 58 16 179 25 270 15 162 31 597 27 735
-1 39 -8 91 -16 118 -13 41 -13 49 -1 61 16 17 19 36 5 36 -5 0 -13 10 -16 23
-4 12 -19 33 -33 46 l-27 23 33 -18 c18 -11 129 -91 246 -179z m-357 118 c-3
-10 -5 -4 -5 12 0 17 2 24 5 18 2 -7 2 -21 0 -30z m1383 -5116 c0 -1 -26 -27
-57 -57 l-58 -55 55 58 c50 53 60 62 60 54z m-200 -181 c0 -2 -8 -10 -17 -17
-16 -13 -17 -12 -4 4 13 16 21 21 21 13z m-125 -102 c-46 -38 -150 -108 -133
-89 11 11 152 114 158 114 3 0 -8 -11 -25 -25z m-145 -99 c0 -6 -119 -83 -160
-105 -46 -23 -9 4 73 57 92 58 87 55 87 48z m-224 -140 c-11 -8 -25 -15 -30
-15 -6 1 0 7 14 15 32 19 40 18 16 0z m-280 -140 c-11 -8 -25 -15 -30 -15 -6
0 -2 7 8 15 11 8 25 15 30 15 6 0 2 -7 -8 -15z m-1059 -321 c-3 -3 -12 -4 -19
-1 -8 3 -5 6 6 6 11 1 17 -2 13 -5z"/>
<path d="M3400 9160 c0 -5 5 -10 10 -10 6 0 10 5 10 10 0 6 -4 10 -10 10 -5 0
-10 -4 -10 -10z"/>
<path d="M4845 8679 c-8 -13 32 -49 55 -49 22 0 27 22 8 37 -19 15 -57 22 -63
12z"/>
<path d="M4946 8621 c-3 -5 1 -14 8 -20 16 -13 32 2 21 19 -8 12 -22 13 -29 1z"/>
<path d="M4470 7320 c-169 -17 -391 -61 -610 -122 -95 -26 -449 -131 -505
-150 -16 -5 -66 -20 -110 -33 -44 -12 -146 -43 -226 -68 -80 -26 -165 -49
-188 -53 -22 -4 -41 -10 -41 -14 0 -11 104 -55 193 -81 69 -21 77 -26 77 -49
0 -32 10 -46 38 -54 12 -4 35 -20 50 -36 15 -16 45 -35 67 -43 22 -8 77 -30
121 -49 45 -20 94 -38 110 -42 16 -4 52 -15 79 -25 28 -10 86 -27 130 -36 44
-10 85 -22 90 -26 6 -4 37 -14 70 -22 33 -8 74 -20 90 -26 17 -5 76 -22 133
-36 92 -22 123 -25 290 -25 158 0 202 3 273 21 46 12 93 29 104 39 11 10 34
24 50 33 17 8 39 24 49 36 11 12 25 21 32 21 17 0 45 30 39 41 -4 5 3 9 14 9
51 0 69 29 29 47 -21 9 -17 14 57 61 44 28 107 70 140 93 61 43 285 262 285
278 0 27 -227 169 -356 224 -170 72 -387 105 -574 87z m625 -200 c50 -15 115
-34 145 -43 67 -20 120 -52 120 -71 0 -31 -164 -136 -350 -224 -273 -129 -391
-153 -685 -141 -139 6 -209 13 -258 28 -87 24 -98 34 -58 52 31 14 40 32 21
44 -16 10 -12 47 10 82 21 36 82 70 181 103 35 12 71 28 79 35 8 8 35 18 60
24 193 44 291 63 340 66 156 11 264 25 273 34 7 7 -2 16 -34 31 l-44 20 55 -6
c30 -4 96 -19 145 -34z m-815 -10 c-8 -5 -19 -10 -25 -10 -5 0 -3 5 5 10 8 5
20 10 25 10 6 0 3 -5 -5 -10z m-343 -616 c-3 -3 -12 -4 -19 -1 -8 3 -5 6 6 6
11 1 17 -2 13 -5z m80 -20 c-3 -3 -12 -4 -19 -1 -8 3 -5 6 6 6 11 1 17 -2 13
-5z"/>
</g>
</svg>
